<svg xmlns="http://www.w3.org/2000/svg" width="512" height="512" viewBox="0 0 512 512"><rect width="512" height="512" fill="#f2eee4"/><g fill="#292a27" stroke="#f2eee4" stroke-width="1"><rect x="325.0" y="210.7" width="8" height="7" transform="rotate(270 329.0 214.2)"/><rect x="366.2" y="226.5" width="11" height="13" transform="rotate(259.1 371.7 233.0)"/><rect x="400.6" y="263.8" width="14" height="9" transform="rotate(248.2 407.6 268.3)"/><rect x="423.5" y="310.2" width="17" height="15" transform="rotate(237.3 432.0 317.7)"/><rect x="306.0" y="235.6" width="8" height="11" transform="rotate(234 310.0 241.1)"/><rect x="351.4" y="281.0" width="11" height="7" transform="rotate(223.1 356.9 284.5)"/><rect x="357.4" y="332.2" width="14" height="13" transform="rotate(212.2 364.4 338.7)"/><rect x="345.0" y="392.9" width="17" height="9" transform="rotate(201.3 353.5 397.4)"/><rect x="293.5" y="258.0" width="8" height="15" transform="rotate(198 297.5 265.5)"/><rect x="284.6" y="310.3" width="11" height="11" transform="rotate(187.1 290.1 315.8)"/><rect x="257.4" y="360.6" width="14" height="7" transform="rotate(176.2 264.4 364.1)"/><rect x="212.5" y="398.6" width="17" height="13" transform="rotate(165.3 221.0 405.1)"/><rect x="249.3" y="261.0" width="8" height="9" transform="rotate(162 253.3 265.5)"/><rect x="212.3" y="294.4" width="11" height="15" transform="rotate(151.1 217.8 301.9)"/><rect x="159.3" y="323.0" width="14" height="11" transform="rotate(140.2 166.3 328.5)"/><rect x="126.4" y="333.0" width="17" height="7" transform="rotate(129.3 134.9 336.5)"/><rect x="238.8" y="237.5" width="8" height="13" transform="rotate(126 242.8 244.0)"/><rect x="185.9" y="252.8" width="11" height="9" transform="rotate(115.1 191.4 257.3)"/><rect x="128.4" y="244.6" width="14" height="15" transform="rotate(104.2 135.4 252.1)"/><rect x="71.5" y="221.9" width="17" height="11" transform="rotate(93.3 80.0 227.4)"/><rect x="216.2" y="212.5" width="8" height="7" transform="rotate(90 220.2 216.0)"/><rect x="166.8" y="190.0" width="11" height="13" transform="rotate(79.1 172.3 196.5)"/><rect x="122.4" y="156.5" width="14" height="9" transform="rotate(68.2 129.4 161.0)"/><rect x="91.2" y="99.4" width="17" height="15" transform="rotate(57.3 99.7 106.9)"/><rect x="215.9" y="174.5" width="8" height="11" transform="rotate(54 219.9 180.0)"/><rect x="215.2" y="135.7" width="11" height="7" transform="rotate(43.1 220.7 139.2)"/></g></svg>
